<svg width="500" height="500" viewBox="0 0 500 500" fill="none" xmlns="http://www.w3.org/2000/svg">
<g clip-path="url(#clip0_1_2)">
<rect width="500" height="500" rx="153" fill="black"/>
<path d="M138.749 361.07L54.6139 138.29H77.1289L161.264 361.07H138.749ZM239.381 361.07V138.29H260.711V361.07H239.381ZM392.154 228.35C381.568 228.35 372.957 225.19 366.321 218.87C359.843 212.55 356.604 204.255 356.604 193.985C356.604 183.715 359.843 175.42 366.321 169.1C372.957 162.78 381.568 159.62 392.154 159.62C402.898 159.62 411.509 162.78 417.987 169.1C424.465 175.42 427.704 183.715 427.704 193.985C427.704 204.255 424.465 212.55 417.987 218.87C411.509 225.19 402.898 228.35 392.154 228.35ZM391.917 216.263C398.395 216.263 403.609 214.209 407.559 210.101C411.509 205.993 413.484 200.621 413.484 193.985C413.484 187.191 411.509 181.74 407.559 177.632C403.609 173.524 398.395 171.47 391.917 171.47C385.597 171.47 380.462 173.524 376.512 177.632C372.72 181.74 370.824 187.191 370.824 193.985C370.824 200.621 372.72 205.993 376.512 210.101C380.462 214.209 385.597 216.263 391.917 216.263Z" fill="white"/>
</g>
<defs>
<clipPath id="clip0_1_2">
<rect width="500" height="500" fill="white"/>
</clipPath>
</defs>
</svg>
